<mxfile host="app.diagrams.net" agent="Mozilla/5.0 (Windows NT 10.0; Win64; x64) AppleWebKit/537.36 (KHTML, like Gecko) Chrome/132.0.0.0 Safari/537.36" version="26.0.10">
  <diagram name="Page-1" id="i4FCfhRzioGpQZAmu3LE">
    <mxGraphModel dx="2109" dy="1755" grid="1" gridSize="10" guides="1" tooltips="1" connect="1" arrows="1" fold="1" page="1" pageScale="1" pageWidth="850" pageHeight="1100" math="0" shadow="0">
      <root>
        <mxCell id="0" />
        <mxCell id="1" parent="0" />
        <mxCell id="un8zVXGm4tM4fwn1wukc-25" value="" style="rounded=0;whiteSpace=wrap;html=1;fillColor=#dae8fc;strokeColor=#6c8ebf;" vertex="1" parent="1">
          <mxGeometry x="-150" y="-5" width="880" height="535" as="geometry" />
        </mxCell>
        <mxCell id="un8zVXGm4tM4fwn1wukc-1" value="" style="sketch=0;aspect=fixed;pointerEvents=1;shadow=0;dashed=0;html=1;strokeColor=none;labelPosition=center;verticalLabelPosition=bottom;verticalAlign=top;align=center;fillColor=#00188D;shape=mxgraph.azure.laptop" vertex="1" parent="1">
          <mxGeometry x="-110" y="200" width="266.67" height="160" as="geometry" />
        </mxCell>
        <mxCell id="un8zVXGm4tM4fwn1wukc-4" style="edgeStyle=orthogonalEdgeStyle;rounded=0;orthogonalLoop=1;jettySize=auto;html=1;flowAnimation=1;" edge="1" parent="1" source="un8zVXGm4tM4fwn1wukc-2" target="un8zVXGm4tM4fwn1wukc-3">
          <mxGeometry relative="1" as="geometry" />
        </mxCell>
        <mxCell id="un8zVXGm4tM4fwn1wukc-2" value="" style="shape=image;verticalLabelPosition=bottom;labelBackgroundColor=default;verticalAlign=top;aspect=fixed;imageAspect=0;image=data:image/png,iVBORw0KGgoAAAANSUhEUgAAAIwAAACGCAYAAAAPW2JYAAAAAXNSR0IArs4c6QAAAARnQU1BAACxjwv8YQUAAAAJcEhZcwAADsMAAA7DAcdvqGQAAB7MSURBVHhe7Z1pjxxHmt9/EZlZd3UdfbPZvE9RlMiRNKI0kkYaaWdGc3kGu9jFGgMYMHwBfmHDn8Cv/BH8yrDXgLG2d2Gvd4717Gh1zYzkoSRKo4s3KbaaZDf7qq77yMwIv8gsdrHYR1VXVXdTrB8Q6M7MyKw8/hnxxBNPRIonnjij6dOnRWTzij591qMvmD5t0RdMn7boC6ZPW/QF06ct+oLp0xZ9wWw52k8PJn3BbBVKgWsj7CrUyginBlo159rxiL7jrsdoDU4VokkYmkAPjIKUUCkibl+F/AIoF6yQt36H0xdMr9Be1aPNINX0Xspjh3CH92KmRolGYwi3hpi9jrhzHeZuwMJNZKUAhuUJR4jmI+4I+oLpBdq7pa4VpTK0j9yhF8iPHcIOxghZJulEgkh6EIFCLM8ivvgEzr+DMXsJijlwKgild6Rw+oLpBUqhrDCFXY8yd+L71IwAGuHZMbbCMkwmDh/ATCURoQiYJlTLGJfPos7+HcYX55ClJa+aQoDA+7sDMHbt2v3vm1f22Swa4TqoYJzFA99g4eAL2GYYXS8lhAAJ2nUpZrKEkgmsoAWuC1qjBwbh2BnYdxKiaSgVEUs3PbHskNKmL5hu4bd43GCCxYPPk5s4SS2cvP8ha0BplO0QHx3GCoVWmtmGCcEwDAyiR/ah9xxHj+5HKBClJUQli5AmiO0zjvuC6QZKgZS48VGW9jxJduIUtUi6OZeHLxiUJj46QiAcatquwQxALIVOj0N6Ap0Y8VpZwRA4DpSyXl7hl1pbSF8wnaIVSkqc+BilPU8yt+8MTjDanGuFRsGM+IJpfuZae01trSEYQY8fQu0+BqkJtGGCW0NoQNledbaFwukLpiM02nWwk5NkDz7H4sEXcDdqQqxWwmz0rJULZgA9vAd9/BuoEy+AbSMydxCljF9N1TNvdLDO6Atms2iFrBUo73qM7KFvkh97hJpW6I3c/psRTB2tQbsgLfSeR9DHnkXvPo5wXMT8F2BXPfumhw7AvmA2g3IBRWnvk2T3P0sxvY+aEUS34upvEMzA2AhWpMmGaQUhvCZ3OIZOjsL4QdSuoxCMQnEZUVjyfkiazXt2TF8w7aIUygpRGT1K9tA3KSb3UjODKO0251yd1UqYzaC1J5xgGJ0cRQ9PQnIUYkkIxxGGAcVlz8ZBdM3G6QumHbTCtUJUhg+TOfQyxfR+bCFQrZQsdVoxettBa69Jb5jo4Un07uPosYOIyAC6VgKtEW4VlNOV5nhfMG2glUNp8mssH32ZbHwUtxWbpZnVSphOBNOIcj1RJIZR+0+jHv8jhBlEZKaR2VmQgY5Lms4l91VHa3BdhFtj8fArzO9/nkIo1ZxrZ+G6YFe8f598Fff7/wb38VehnLvbz7VZ+oJZD61Aa1QgwvyJH5CbPE0lksaVRnPOTaGVas1Qbhu9IgwrjN5zEvXYt9AHTiMat22CvmDWQisQAjs6xPK+p1mefJJKdAhldNryWHlYWjdUaLpHyXXRgTB693HUiW+i3c4Ct/qCWQ2t0MKgGh0hO/E4i4dfohaIrHQibpa13mz/pe9Zcl10NIXafxp9t6m9xrlsQF8w96ERysUNp1g68Bx3jry8Ep7woKJBCxMVTuCm93rdC7ovmM7xbZZqYi+zx79LdvxEx62Kdlir1SvEOh7/Vl0sUkIgjIylEdJq3toya5ziQ4jrogyL0sgx5o6+RHFwH64Vbs7Vffxqg/VrrLVrEL32pnsRIAXCMNdR38b0BYPnv3ADEUpDh1na+zT54cM4gXV6nHvFWk9+rfV1NtreRfqCUQplBqgMHya77xmyo8dQxuaL7K86D7dgtEa7Ncpjj7J8+EWK4ydWaWJ0MX0FeHgFoxRKa/LHvkfmyCuU4uM4TrU5V/fR2ovQe0B5OAXjujiBGIWDL7C0+zFK4SS2EOgtKQVabdbsTLokGO01SZW62zTdsSiXamyY7J4nWN7zJKVI2hfLFrz1jVVTPQTzAaNzwfg3QUsDFYjiWlG0Ye084fjnYgcHyO16nKX9z5OPDaPXcn70gnp1pNRDLBjlogAnPk5h39MU9zxFLbHL27ZTjD3tlYBaGiwe+SMy+56hFozsjHN7wOgsHsapUh47RvGpP4PH/xHzu46R23WUwuTj1EYOEi0uIop+uOBWvsmNaAUInEiaO6f+hMLQIZxAeHvsiPpv+qVMfHQcKxJBbMW5CAm1Msbnv0Xk5v2AqvZ/dxNPcaVYLRw4w9LJ75KZOMFCbJBqJIkdSVFNjpGbOMnt0z8hf/h53GAU4daaD9R7lEIbJqXB/cyc+D6F1F7sQMNIxK3mvhJXIHyvq1a6t6lLpWl7grlrr0iKk4+xfPgFCrsepRyMUdAOync5aiR2KE5290mWj75E7vBzVFN7fLtmC4xL6rG3YYrpQyztforc8DFsGfR+3o9425bU8OCEa/sB5d572PPUBVoXjPZ+1TXDlEePknnshxTHj+FYawcxayHJjR5i8bEfsHz0RaoD42hh9NYg9g1LbZiU0wfI7H2a7PjJlbd7rVQ3RpvXdyv5xxZoDFUjnJ3GqOb9cdXNF7FzaVkwQrtoaVIeP8rNV/4tudFDOGawOduqVEMDLB7/FnPP/BPs+BjadXpX0miFdm2qiT3MH3qB3OhRMOTGqT7YvXl9t5IQgMZwbWK5W+z76C8IZ6fvVhkPCi0JRrg2biBO5tjLzJz5KY5ltR0foqRBYWQ/0y/9K7LHv+PZNY4Xd9o1XBvXDFLc9zS3T/6AcmzEqwZaQfpi6RVSEi/MMnbtDcb+8N+Q3b72VtB+ddxBkbbBHdKgFXZkmMVjL5M59By12BB6o91WRaDMILX0BPrEtyk99iMqo0c9a70brnLXxo4Mkt/zFAv7n6USHUaZgU568rtKYvZzUtd/R/T2J1i1ildNbSVKgW03r22b9Z+81milyO1/ityBp6mkdzfnaBuNpJjezfLBM2SOfYvC5GmUFfIdWZsUjutQiwxTnDhFfs9TFOPjnqjrL1Oz4blFSbgOgXKe5K0/kPryfaJzlzArOc+xuS0ttc5/c33BAMq0yB5+lmpqvCsXqYGssslFkmQOPcvCqR9T3PUodijhNXfbEY32SkAnGCc/cZrs5FOUBibArXtTtylphWFXCOfnGZj5jLELf0904QrSrXpzwGwHXapy1z6CVmhp4iR24wQiKy70xqK03gJYjVXeuHsSoIRBcXAfN5//F+SOfwc3NNCev0ZrlIb8se+yvPcpCsEBnNo22AZNCCGIFBcYuv4Oox//FUY1571s2+W8BO8lqtlrP68Wae0KVL25qv1ivt5c9IuM+5qQLZxUo3AMk8UjzzN/5qcUJ097g7CUu75xphROJM3yoz9mceQIVSvSnGNrqbewgMEbZxk+/0uisx/DdnmV10KKjqqmdQQjEFphFpcw3Io3AKr+O82G9l3hrP+M10QI7HCc/OhxFh/9Hksnv4cKxLzZllRTFaUUKJdyei8LB19keeQoNTPcdqut20jlEC4uMnrlNZLTHxDK30Z2aTzzTmLtq/HtCaOWJzp7Gas+TVYPsYNR8mPHyBz9FktHXqSS3os25EppoxVaSsqpfSxPfI3c6COUA7FtF4tVKxFfvE7qi3dJTX9IsDCDUA50aYTkTmJtwdTRmsTVdwjPXCJYKWH1+I3RQlJJjDN/+seUj7+CPbgPbVqgNFoYlBOTLO5/ntzoCewWHYe9xKoWiC1cJ3XjLKlrb2PYRa9U6fF92i7Wvyp/NqPQzOcMXnidsdlLDHYwpqUtDAvx6HcpPvVTShOPo7XCjgxy85GfkB063LKXuZcIrUjf/Jjhy68RvfPpzrNXekAL4Q0CDBOjnMHMzaLsCtnhg82Zuo4GKlpRCkQoJCZYHjlBNnUUOzDg2VIa79y24QEZrk20tMD4+Z8Tu/M5pp1HtDWPrgbXRj36MnpwEoytqbpEpYhx6V1EfqHH4Q1CIpXGyEwTuvo7xi68jlktNefqOrZW2GaAWnIXld0nqE4eRwdCXuvKdT3bppUWWRcJlbMkZz5j6OKviCxew6zlEXob4322mNavUnrGp7U8TfrSmySvvUugsNCcqzeYJoQjMDAA8QQyHEVIw28xad9R19Cs7xGR/B0Gbn9Ccvp9YguXkU5t20q57aJ1wYBn9WuNzEwz9PHPiE99iFVc8t6w3j2nFYSAZAKZTCEjMRCmJxrH8UucBv9QlxBaY7g1QoU7pG5+SOrL3xPKXPdmQWirGtqA9dwUa6V28neJ9gSDVz1pw8So5Bj96H8xdOEfMNzallYNTjCImx6E1JAvFs8347nlfV9NlzCUTSx/hz0f/U+SX76LWc1Ctw1uz2Pg/VsfeNFCqouhef1aqRu0L5g6hkS4NQau/JaRd/4LFDIr0WP4F9PYFVBXeqOwVsvTuJ6m7Y3LWkM4BKMTEAj6+9TtGtcTUYfVU6SSY/jWR4x+/FeYJb/67fYcuE1iaac0aEcIGonC6sjLS0eCwXMxm9UC8ZufMH7uLwnPTyHtmi+Oxq6D+rK/rvGhN+dpXN8otOZl/CoqGITUIMZAEmkG7hXK3X3qO7TOQOYGqRvvEJ86i1Ve9j3dnbnVN6T902yD7px7B4LxH5gQmLUSqS8/IHn5TWJzV7CqpfsvvvFBN4pgtTyN+Zq3N/6v/XOIRCA2gIzEkKblCcR1fbvGF1ALohFaEbBLJOYvkbx5jvjMJ1iFWd9WkV254Q86nQkG/4EZBkJK0pffIHX1baLz17CcKgEpt+YWK41rWehoDBkbAGnd7XNC+y2oDUoaQzmEKlnic5cZufomsdlPMar+J/X63KVzwdzFm848fuVtBj//OUNLXzIWCGNulX9CaVzDxIknYGyXN7W69rv16xX9OqKp2ytjn/w1geVphPI+afOVQ61WtLdO1++ItiIE568RO/eXqCtvMSwU4S3yZN5FShgcgUjM6853/PBE1/VaVY5fVfmGdGLuCumLvyJ24zee60Aa3Wsuf8XoumAQEuG6WJlpwp/+AuvK7xD5xeZcPUaAZUIsgYynMIJ173A9Is6roqRdYejG/yM99S6RzA3PYPftsj6r033B4Dn4hFIE569hXnyd8NQ5grm55ly9JxiEaBziCe+v9OJ8DadGJD9LavoD0tPvE8lcRzplL9Z2C9Gd1Q7bQm8Eg+/gM4OE5i6TvvwG8Zt/wKwUmnP1HGUYuJEopIcgHEMKQSQ3Q3r6PcauvYZVnPOe3FbZWg3ozl1FW06P75KAQJjg0jVSV98iOfVBc4atQ0oYHCIQkCTuvEfq2v/1WlHddO8/BPRYMBpqZezYONmhR1gOjMLsLc/o3CZq6V0snvwJ86f/sWfc1m2aPi3RO8For1OwltrL0p4z5IaPe0FPtSpkFqBSvdtK2UqUaVFNT5I98DwLJ39CNbHHG97S2K3RZ016Ixit0EJSTexiefeT5MZOUIkNr4yLKRUgn4VqdVvebmUGqKR2kzn8TTJHXqQ48giOFfVmU9jJ7AAjufuC0QolDKrRUXJ7n2Fp/DGqwYTfXJVg+M3WUt4XTedjZTaDlpJaJM7isZfIHP8OxfFHvImGWuxG6Bp1EbSYtNvc/9Zi6hLdF4xTozqwm6VDrzA3fhrXWCUUoC6acgEy82Crrl5Uu+R2n2Du8T9h4cirK73dWyQa7YugpeRX4fetbyFt/H3k1uiqYITrUJp8kszBF8inJps3eyKpD72Q3tz32FVYnMEqF5D1IChH3Z/qF+z62+s91835GpP2XeHN65uTBjuaInfgG9x6/l9TS+3zZmza6VXUNtAdwWgNWpEbP83S2CmKiUmc1UoWGkQjxUqPu13DzS0jyyWk8j5sdV+Rqv23pC4U5S/fl68hNeZfL7neEBY7kqIw+ghzJ39Ebv+zOOEUYisme36A6EwwvlBcK0J+7CTLu5+kmJyktpZY6tTjSqRxt4NPVavoYh6Kea8lVS+B6qnuK2lcFg3LqyVRF+gGyc+nDYkTjJCdOMXygRfI7n2acmI33J0ASd97HQ8hHQjGez1dM0wxvZ+5Y6+ST07gGAF/s288Nqc6snHWJ08AbqWMymU8Y1i53tkZ/vatTEJQGDnEwtFvs3jkFWrRQbQ0fL083KLZvGBchTYC5CdOsXDsVSpm1NOD1iuxKM2pOZ7QnxoDGgxhpaBShIU7XY3NbQtTgClxEoPkjnyT2y/+O2rJyZXze4hpXzC+INzQAHf2v8T8xNepyuBKy2K9QFOt1xdQvYrQGpwqLMxDqXK/kbqFSWlJOTrMza//U5aOfhsnOoiwez8ma6fSnmC0AgFOOMX83m+QHz1OLZRA4T9kfFGsx2rVU526ESyFZ6zWSlDIQqVyv6G6VQlvOpJKYhfL+54hc/QVyuMnPEE/hN0KrQvGn2CoGh0js/sJsuOPUQsmmnN1Tt2YxW8JVUvIwjJGKd+UcespJybI7fk6mYMvkh17FNeKeOf6EImmNcH4n+WtRcfIjp9ibu9zOFbEewV7dbOEZ9MYTpXw0hSxW58SzM0iXWfl1d8GKqEkSxNPMPv4n1Lc9ShOKNX+VGsPMC0IxutxrkXHWZo8w/zur/feG1pvOZkmsdI8w1Nvs+vcf2by7H8iXJxHbkOn5T2YAZzBPdw888/JHH4JJ5x8aOya9QWjPcdXdegYC3ueJTd4cIveboFUmpHp9xm8+hrhzHWkACt7i7H3/oL4/EWMbe9dFmghyOx7loXH/pjS5NcR1bzvs9mKe7Q9rC8YQAvB0vgpiqlJf06WXt4MiaE10eIdRq+/QeL2OUKFGa8aEgLp2gSXviD1+S+ITf0e7LK3W6Mh3WxQN69fbVsjzXk3SHZogPzoI8wfeZk7x17FDcb9qvqrWUWtLRjtjfRzAzGKqUnsYLTHYhEE3Cqx7BSp2+dI3X6fQGEGof2oOLzebqEU0dnzJK69TXz6A8xy9v6HXme99Y3b6v+vlX8D7GCM/Mhxlo58m8yB56kk9qKl5U1b9hVjbcGg0ULihlPelGE9RWPVygwsTzE0fZbkl2cRTq1hxGEDUoIZID5/hZHPfkn09qeY1YI3g0Qjzcsb0W7+ZqSBmxjjzuN/TObAC1SSkyijxx/i2AbWFoyQfvS/AxvMgNop0nUZmT7L4PmfEbpzwYvel4bvlFkDwyJUWmD8g/9KdPY8slZc6W/aLvxSeenwCyyc/nOKe55BVrPebE9fEdGsLRi8j1KYpXnCpSWMbnf1C4npOCSWpth96RfEZz7EcEvtTd8lBAaa0T/8d4avvEkkO7MzRAMUE7uYPfJtpp7+lzjh9FfGrll/jjut/CGjJrVwEjsYa86xSSTBWpH4/GVStz4gkp3CcEre18maq6D18J18pl3CKi0hXBtlxbCjyeacW46WBm4ghh0exI4PY9bKmNUs0q54padr4554GZ2aRON3bPqpLnndsK6dJPAK53oHu8CryoVdxrz4W0Rh85/wW18w/vHMWgFlWLiBGE6gsxm3BRAuLRGfu0jizidElm/4c9pudriHAGlgVJYxy8sI5aACAzjB2Ir4NnPYriDQZohqahJtBBDKwaiVMGpFUC7uiVfQqUkQa5SqXmG1KQTN+wtEtYh5+Z0eCgbP2yqdKsHyEgC1SBrXCG3qx6TrEqwsMzjzCYmb7xEszHofa9jEse5DmpjVHIH8DEbNxo4OocywF5aw2cPrDsXWsG81OYETGfZmVy/MYDjVuyXMmoLphGaxaY0o5TGvvYso9HoWTSkxqnnSN99j7MqvvTHK+E3dVlGaUH6WyfN/Q/LL32I6Behy60ubQQynxsCNtxj79G8IZW97N67RdGiOg6ob9Kvlq6fGfI3U162Vr3Gb1pTSe5k9/kOmvvbPcM1ww4EeHDYoYRoQ3oQ7Zq1AbPkGbngI14p4b/B9d7IBYRCu5EjfPsfgjd8QKC8gtG9/tCO4lhEIITFKCwTKGXQgTHVgdEUU9UTT38ZLaF5uXF//23yMRlbbVv9fWqhQmuLIScw9JzEisR7dh/sR1WLHJUzrgvEvSioHq5LFrOXRRgg3EEUZgVXunEBoGFieJnH7I+Jz5wlWFhvmtG3/ZFvCN4SFcjFrecxaAYSkGp9ozrlNCBAmjjlAJDWIFdiir8YJCbUK1tXObJjWqqQ6fg+y0JrY4hWSMx8SX7xKsFbwBeAlqTTBSp6BpRskb3/IwJ1PCJTmvZNupxW0aQQYJtKuEJ27SPrabxi4/RGmW/bmqttW/Ob1Kr0SvUQj0MLo+OrbKGHq+KGUQhAszWNVC2AEcM0IhnIxXJtgOUN86QsGb71PZOmy9xmY7fiyhxAI5WCVFokuXaeWmsCxoii5XZ/Q81HeuUUHBrAC1paVMKJWxrrSWbNaPPHEmc5E5wdW2dER7MgIQrtYxTnM4h3PVpG9slXaQHtvtTaDTJ/6M/K7vgaBbvmU2kRrcLwhMiMTu4jEwltye7QwEPklwn/3H5Az58GpbKq0b3+PZoT3IS6rvEh48RKhxSuY5UXfCbcDxEK9KpUIp8roZz8jefVNqOSac20hGuz744nuWVynylpr/V3W2bdTOheMLwjh2kinjHQrCOXerbZ2DPVqtJwh/eVZ0ldfJ1CcR2yXu95/orohWqL+oLX2mxD3RlKsnm+1tMq+HRsvPl0QTAN1o3YnCaURIcEwCednGbzxDokvfkNw+RbS6XI/2XroJn9PfV39gdb/X215o/Xr5ekS3RXMg4JhEKhkGL7wCxJT7xLMzSCdLYpd0X5wexcf4lbycAoGrytBSJPhi3/L0JVfE1m+0Zxj6/D7XDeV/ML8vvUNqZtm5MMrGLy7rM0IsdsfkLr2OvG5i805uo+oj/JcWb6vBq/bHfVFfW8cVuO2utjuoZ7fr/q62fZo/qmHD2l407DeuUDy6hskv3wf2as5+HTTV1v8fq37jFbf7rjPYF1l26qp6SfvOUaH9AUDaMPCrBaIzX5K+uobxGe9sE/PYOzSncZ/aI02TP3pNqfm/I3Ul5v3aU6N+ZuP0QF9wdQxDKSyCS1cYOT83xKdv+jHrXT3hm8bGk+gqrOBgH3BNCINhBEgmJ1i7NP/TeL2Oe8OfRVmbNAu2GVUMYPuYDRDXzDNCIGWBmZ5gfS1Nxm6/GvvhXRV52m7RmxqwHaQ5WXM3DTC9R2rm6AvmNUQErQmkJ8h+eXvGbr8K2RhwX/g3vcKNpW2CS0NdHkZdetTxF1/U18w3UVIhHIJ5m4xeO11ElPvYBXueGPK72vH7mCExKmWcGYvYFx+y/sa7iZLF/qC2QBfGGYly8SlnxGbfg+zMOf1lW3yDd0yfFFou4J96zPUxdcJ3zi7huOndfqC2QghwDDQRoDxSz9n+OIvCWZvecHrO1U00jtfAHX+dRK//Y8MXvh7dHiwI7FAN+JhHia0wjUCFIaPs3D0h1STe9HCW98y2p9buOYysmc34YGot7pDf4+QAm1YiFoFvTgFU+8Tvfo2OreIqGSRrg3SbN6tbTYRcfcQIwTSrWFVc17MjxXCDcRR5moxzevgzzEcTQxgBvyRE23sfg/+bKSiVkbPXsS89AbWhdcwb3yANX8NUS16sUldinjsC6ZdhES6NUKF2xi1Am5oADcYR7UzFcpqgmkX6Q/0L2Vh/hqBqbPIK7/DvPwbArc/w6hkwQx6+TqshhrpC2Yz+F3AoeUbSOXgBgdwwimvBbIRGs/juhnBCG8SI9d1EW4FIzeLnDqH/Oj/EDn3P7AWriPtqjfeq5Vz2QR9G6YjNMIuUxo8SubAy2T2P+fNQLVWSaPq/Uj6rg0TirU29FhIr1qxgTsLNxm88BqJK28RXLqOFqYfy0DPDfG+YDpFuShpUo1PkJ88w+L+5/1xWqug/ABwx/P8juydJBRvQTBmgEI5DzPnGbryFvbND7GqZcxayfvGkx+zvBX0q6RO8WfFMu0CVnkZoRVOKLkyFLbxhdd+KeN43QTRVAIzuEaVJCRKCorZeYJT7xO4+BqBy28QvvUZVvYWhmN7h+6yjbIRfcF0A3/khFnLESrOo6SBG4ziWvEVwTR2EbhetbSqYKRBrVbByc1izV7Cufo7opffIPLFOwQXrnvVWQ+M2VbpC6ZbCC+KzqjmiCxfRxtBqgPj3qA5pFcd+YPyURrDMIgm721Wu04VaRcpz13Fufg2A+f+msTFX2AWl7wqx9zcrBndpG/D9ADhOriBMNmxU9w++iMIprwH7iqwFYaQpHYNE4rFkKbnH3HtKtmbn5D+/FdEbn2EUc6A8EdFdjPGskP6gukFfkykY8Uopg8yc+QHuIkJMAIEDJNYJEJ4cBADRTk7C9Mfk/ziXfTCNcxSDsMpe8cQDVHeO4S+YHqFLxplhsikj+AmJ3FSExAfIRiOYqoawaUbuEtTsDhFJDONrBX93uSdJ5Q6fcH0Gu19ykeF4tjJCZyBMZQ0MUpZgotfYJaXQLloI3j363Q7mb5gtgqlQLsI5aK1QkgTbfilyQPEg3W2DzJSgmGhrSAEwmgz8MCJhb5gtoOd0+LZDH3B9GmLvmD6tEVfMH3aoi+YPm3RF0yftvj/Dreybm2ekesAAAAASUVORK5CYII=;" vertex="1" parent="1">
          <mxGeometry x="-60" y="220" width="52.24" height="50" as="geometry" />
        </mxCell>
        <mxCell id="un8zVXGm4tM4fwn1wukc-3" value="" style="verticalLabelPosition=bottom;html=1;verticalAlign=top;align=center;strokeColor=none;fillColor=#00BEF2;shape=mxgraph.azure.github_code;pointerEvents=1;" vertex="1" parent="1">
          <mxGeometry x="-58.87999999999999" y="20" width="50" height="50" as="geometry" />
        </mxCell>
        <mxCell id="un8zVXGm4tM4fwn1wukc-5" value="&lt;b&gt;AWS Account&lt;/b&gt;" style="points=[[0,0],[0.25,0],[0.5,0],[0.75,0],[1,0],[1,0.25],[1,0.5],[1,0.75],[1,1],[0.75,1],[0.5,1],[0.25,1],[0,1],[0,0.75],[0,0.5],[0,0.25]];outlineConnect=0;gradientColor=none;html=1;whiteSpace=wrap;fontSize=12;fontStyle=0;container=1;pointerEvents=0;collapsible=0;recursiveResize=0;shape=mxgraph.aws4.group;grIcon=mxgraph.aws4.group_account;strokeColor=#CD2264;fillColor=none;verticalAlign=top;align=left;spacingLeft=30;fontColor=#CD2264;dashed=0;strokeWidth=2;" vertex="1" parent="1">
          <mxGeometry x="300" y="140" width="350" height="310" as="geometry" />
        </mxCell>
        <mxCell id="un8zVXGm4tM4fwn1wukc-15" style="edgeStyle=orthogonalEdgeStyle;rounded=0;orthogonalLoop=1;jettySize=auto;html=1;" edge="1" parent="un8zVXGm4tM4fwn1wukc-5" source="un8zVXGm4tM4fwn1wukc-6" target="un8zVXGm4tM4fwn1wukc-8">
          <mxGeometry relative="1" as="geometry" />
        </mxCell>
        <mxCell id="un8zVXGm4tM4fwn1wukc-6" value="" style="sketch=0;points=[[0,0,0],[0.25,0,0],[0.5,0,0],[0.75,0,0],[1,0,0],[0,1,0],[0.25,1,0],[0.5,1,0],[0.75,1,0],[1,1,0],[0,0.25,0],[0,0.5,0],[0,0.75,0],[1,0.25,0],[1,0.5,0],[1,0.75,0]];outlineConnect=0;fontColor=#232F3E;fillColor=#ED7100;strokeColor=#ffffff;dashed=0;verticalLabelPosition=bottom;verticalAlign=top;align=center;html=1;fontSize=12;fontStyle=0;aspect=fixed;shape=mxgraph.aws4.resourceIcon;resIcon=mxgraph.aws4.ec2;" vertex="1" parent="un8zVXGm4tM4fwn1wukc-5">
          <mxGeometry x="25" y="90" width="78" height="78" as="geometry" />
        </mxCell>
        <mxCell id="un8zVXGm4tM4fwn1wukc-8" value="" style="sketch=0;points=[[0,0,0],[0.25,0,0],[0.5,0,0],[0.75,0,0],[1,0,0],[0,1,0],[0.25,1,0],[0.5,1,0],[0.75,1,0],[1,1,0],[0,0.25,0],[0,0.5,0],[0,0.75,0],[1,0.25,0],[1,0.5,0],[1,0.75,0]];outlineConnect=0;fontColor=#232F3E;fillColor=#ED7100;strokeColor=#ffffff;dashed=0;verticalLabelPosition=bottom;verticalAlign=top;align=center;html=1;fontSize=12;fontStyle=0;aspect=fixed;shape=mxgraph.aws4.resourceIcon;resIcon=mxgraph.aws4.ec2;" vertex="1" parent="un8zVXGm4tM4fwn1wukc-5">
          <mxGeometry x="230" y="52" width="38" height="38" as="geometry" />
        </mxCell>
        <mxCell id="un8zVXGm4tM4fwn1wukc-12" value="" style="sketch=0;points=[[0,0,0],[0.25,0,0],[0.5,0,0],[0.75,0,0],[1,0,0],[0,1,0],[0.25,1,0],[0.5,1,0],[0.75,1,0],[1,1,0],[0,0.25,0],[0,0.5,0],[0,0.75,0],[1,0.25,0],[1,0.5,0],[1,0.75,0]];outlineConnect=0;fontColor=#232F3E;fillColor=#ED7100;strokeColor=#ffffff;dashed=0;verticalLabelPosition=bottom;verticalAlign=top;align=center;html=1;fontSize=12;fontStyle=0;aspect=fixed;shape=mxgraph.aws4.resourceIcon;resIcon=mxgraph.aws4.ec2;" vertex="1" parent="un8zVXGm4tM4fwn1wukc-5">
          <mxGeometry x="230" y="180" width="38" height="38" as="geometry" />
        </mxCell>
        <mxCell id="un8zVXGm4tM4fwn1wukc-11" value="" style="sketch=0;points=[[0,0,0],[0.25,0,0],[0.5,0,0],[0.75,0,0],[1,0,0],[0,1,0],[0.25,1,0],[0.5,1,0],[0.75,1,0],[1,1,0],[0,0.25,0],[0,0.5,0],[0,0.75,0],[1,0.25,0],[1,0.5,0],[1,0.75,0]];outlineConnect=0;fontColor=#232F3E;fillColor=#ED7100;strokeColor=#ffffff;dashed=0;verticalLabelPosition=bottom;verticalAlign=top;align=center;html=1;fontSize=12;fontStyle=0;aspect=fixed;shape=mxgraph.aws4.resourceIcon;resIcon=mxgraph.aws4.ec2;" vertex="1" parent="un8zVXGm4tM4fwn1wukc-5">
          <mxGeometry x="230" y="110" width="38" height="38" as="geometry" />
        </mxCell>
        <mxCell id="un8zVXGm4tM4fwn1wukc-13" style="edgeStyle=orthogonalEdgeStyle;rounded=0;orthogonalLoop=1;jettySize=auto;html=1;entryX=0;entryY=0.5;entryDx=0;entryDy=0;entryPerimeter=0;" edge="1" parent="un8zVXGm4tM4fwn1wukc-5" source="un8zVXGm4tM4fwn1wukc-6" target="un8zVXGm4tM4fwn1wukc-11">
          <mxGeometry relative="1" as="geometry" />
        </mxCell>
        <mxCell id="un8zVXGm4tM4fwn1wukc-14" style="edgeStyle=orthogonalEdgeStyle;rounded=0;orthogonalLoop=1;jettySize=auto;html=1;entryX=0;entryY=0.5;entryDx=0;entryDy=0;entryPerimeter=0;" edge="1" parent="un8zVXGm4tM4fwn1wukc-5" source="un8zVXGm4tM4fwn1wukc-6" target="un8zVXGm4tM4fwn1wukc-12">
          <mxGeometry relative="1" as="geometry" />
        </mxCell>
        <mxCell id="un8zVXGm4tM4fwn1wukc-16" value="" style="sketch=0;points=[[0,0,0],[0.25,0,0],[0.5,0,0],[0.75,0,0],[1,0,0],[0,1,0],[0.25,1,0],[0.5,1,0],[0.75,1,0],[1,1,0],[0,0.25,0],[0,0.5,0],[0,0.75,0],[1,0.25,0],[1,0.5,0],[1,0.75,0]];outlineConnect=0;fontColor=#232F3E;fillColor=#7AA116;strokeColor=#ffffff;dashed=0;verticalLabelPosition=bottom;verticalAlign=top;align=center;html=1;fontSize=12;fontStyle=0;aspect=fixed;shape=mxgraph.aws4.resourceIcon;resIcon=mxgraph.aws4.s3;" vertex="1" parent="un8zVXGm4tM4fwn1wukc-5">
          <mxGeometry x="25" y="210" width="78" height="78" as="geometry" />
        </mxCell>
        <mxCell id="un8zVXGm4tM4fwn1wukc-17" style="edgeStyle=orthogonalEdgeStyle;rounded=0;orthogonalLoop=1;jettySize=auto;html=1;entryX=0.5;entryY=0;entryDx=0;entryDy=0;entryPerimeter=0;flowAnimation=1;" edge="1" parent="un8zVXGm4tM4fwn1wukc-5" source="un8zVXGm4tM4fwn1wukc-6" target="un8zVXGm4tM4fwn1wukc-16">
          <mxGeometry relative="1" as="geometry" />
        </mxCell>
        <mxCell id="un8zVXGm4tM4fwn1wukc-20" value="&lt;b&gt;&lt;font style=&quot;color: rgb(0, 153, 77);&quot; face=&quot;Comic Sans MS&quot;&gt;Terraform&amp;nbsp;&lt;/font&gt;&lt;/b&gt;&lt;div&gt;&lt;b&gt;&lt;font style=&quot;color: rgb(0, 153, 77);&quot; face=&quot;Comic Sans MS&quot;&gt;instance&lt;/font&gt;&lt;/b&gt;&lt;/div&gt;" style="text;html=1;align=center;verticalAlign=middle;resizable=0;points=[];autosize=1;strokeColor=none;fillColor=none;" vertex="1" parent="un8zVXGm4tM4fwn1wukc-5">
          <mxGeometry x="60" y="20" width="90" height="40" as="geometry" />
        </mxCell>
        <mxCell id="un8zVXGm4tM4fwn1wukc-21" value="&lt;b&gt;&lt;font style=&quot;color: rgb(0, 0, 204);&quot; face=&quot;Comic Sans MS&quot;&gt;MySQL&lt;/font&gt;&lt;/b&gt;" style="text;html=1;align=center;verticalAlign=middle;resizable=0;points=[];autosize=1;strokeColor=none;fillColor=none;" vertex="1" parent="un8zVXGm4tM4fwn1wukc-5">
          <mxGeometry x="275" y="56" width="70" height="30" as="geometry" />
        </mxCell>
        <mxCell id="un8zVXGm4tM4fwn1wukc-22" value="&lt;b&gt;&lt;font style=&quot;color: rgb(0, 0, 204);&quot; face=&quot;Comic Sans MS&quot;&gt;Backend&lt;/font&gt;&lt;/b&gt;" style="text;html=1;align=center;verticalAlign=middle;resizable=0;points=[];autosize=1;strokeColor=none;fillColor=none;" vertex="1" parent="un8zVXGm4tM4fwn1wukc-5">
          <mxGeometry x="275" y="114" width="70" height="30" as="geometry" />
        </mxCell>
        <mxCell id="un8zVXGm4tM4fwn1wukc-23" value="&lt;b&gt;&lt;font style=&quot;color: rgb(0, 0, 204);&quot; face=&quot;Comic Sans MS&quot;&gt;Frontend&lt;/font&gt;&lt;/b&gt;" style="text;html=1;align=center;verticalAlign=middle;resizable=0;points=[];autosize=1;strokeColor=none;fillColor=none;" vertex="1" parent="un8zVXGm4tM4fwn1wukc-5">
          <mxGeometry x="275" y="180" width="70" height="30" as="geometry" />
        </mxCell>
        <mxCell id="un8zVXGm4tM4fwn1wukc-24" value="&lt;b&gt;&lt;font style=&quot;font-size: 13px;&quot; face=&quot;Comic Sans MS&quot;&gt;state storage&amp;nbsp;&lt;/font&gt;&lt;/b&gt;&lt;div&gt;&lt;b&gt;&lt;font style=&quot;font-size: 13px;&quot; face=&quot;Comic Sans MS&quot;&gt;bucket&lt;/font&gt;&lt;/b&gt;&lt;/div&gt;" style="text;html=1;align=center;verticalAlign=middle;resizable=0;points=[];autosize=1;strokeColor=none;fillColor=none;" vertex="1" parent="un8zVXGm4tM4fwn1wukc-5">
          <mxGeometry x="90" y="224" width="120" height="50" as="geometry" />
        </mxCell>
        <mxCell id="un8zVXGm4tM4fwn1wukc-26" value="" style="sketch=0;outlineConnect=0;fontColor=#232F3E;gradientColor=none;fillColor=#DD344C;strokeColor=none;dashed=0;verticalLabelPosition=bottom;verticalAlign=top;align=center;html=1;fontSize=12;fontStyle=0;aspect=fixed;pointerEvents=1;shape=mxgraph.aws4.role;" vertex="1" parent="un8zVXGm4tM4fwn1wukc-5">
          <mxGeometry x="70" y="62.92" width="48" height="27.08" as="geometry" />
        </mxCell>
        <mxCell id="un8zVXGm4tM4fwn1wukc-7" style="edgeStyle=orthogonalEdgeStyle;rounded=0;orthogonalLoop=1;jettySize=auto;html=1;entryX=0.5;entryY=0;entryDx=0;entryDy=0;entryPerimeter=0;flowAnimation=1;" edge="1" parent="1" source="un8zVXGm4tM4fwn1wukc-3" target="un8zVXGm4tM4fwn1wukc-6">
          <mxGeometry relative="1" as="geometry" />
        </mxCell>
        <mxCell id="un8zVXGm4tM4fwn1wukc-18" value="&lt;b&gt;&lt;font face=&quot;Comic Sans MS&quot; style=&quot;font-size: 14px;&quot;&gt;git push&lt;/font&gt;&lt;/b&gt;" style="text;html=1;align=center;verticalAlign=middle;resizable=0;points=[];autosize=1;strokeColor=none;fillColor=none;" vertex="1" parent="1">
          <mxGeometry x="-73.88" y="120" width="80" height="30" as="geometry" />
        </mxCell>
        <mxCell id="un8zVXGm4tM4fwn1wukc-19" value="&lt;b&gt;&lt;font style=&quot;font-size: 13px;&quot; face=&quot;Comic Sans MS&quot;&gt;git pull&lt;/font&gt;&lt;/b&gt;" style="text;html=1;align=center;verticalAlign=middle;resizable=0;points=[];autosize=1;strokeColor=none;fillColor=none;" vertex="1" parent="1">
          <mxGeometry x="125" y="10" width="70" height="30" as="geometry" />
        </mxCell>
      </root>
    </mxGraphModel>
  </diagram>
</mxfile>
